HIERARCHY
ROOT Hips
{
	OFFSET 0.000000 0.000000 0.000000
	CHANNELS 6 Xposition Yposition Zposition Xrotation Yrotation Zrotation
	JOINT Thigh.L
	{
		OFFSET 0.053236 0.030187 -0.090774
		CHANNELS 3 Xrotation Yrotation Zrotation
		JOINT Shin.L
		{
			OFFSET 0.052482 0.016735 -0.407507
			CHANNELS 3 Xrotation Yrotation Zrotation
			JOINT Foot.L
			{
				OFFSET -0.040584 0.032474 -0.426895
				CHANNELS 3 Xrotation Yrotation Zrotation
				JOINT Toe.L
				{
					OFFSET 0.044180 -0.117973 -0.063005
					CHANNELS 3 Xrotation Yrotation Zrotation
					End Site
					{
						OFFSET 0.000000 0.050000 0.000000
					}
				}
			}
		}
	}
	JOINT Thigh.R
	{
		OFFSET -0.058469 0.027668 -0.100990
		CHANNELS 3 Xrotation Yrotation Zrotation
		JOINT Shin.R
		{
			OFFSET -0.042071 0.021908 -0.391408
			CHANNELS 3 Xrotation Yrotation Zrotation
			JOINT Foot.R
			{
				OFFSET 0.015211 0.021194 -0.435713
				CHANNELS 3 Xrotation Yrotation Zrotation
				JOINT Toe.R
				{
					OFFSET -0.036737 -0.118745 -0.063057
					CHANNELS 3 Xrotation Yrotation Zrotation
					End Site
					{
						OFFSET 0.000000 0.050000 0.000000
					}
				}
			}
		}
	}
	JOINT Spine
	{
		OFFSET -0.001793 0.018930 0.107309
		CHANNELS 3 Xrotation Yrotation Zrotation
		JOINT Spine.2
		{
			OFFSET 0.006302 0.002371 0.131408
			CHANNELS 3 Xrotation Yrotation Zrotation
			JOINT Chest
			{
				OFFSET -0.010231 -0.022848 0.048688
				CHANNELS 3 Xrotation Yrotation Zrotation
				JOINT Neck
				{
					OFFSET -0.009256 0.028789 0.163103
					CHANNELS 3 Xrotation Yrotation Zrotation
					JOINT Head
					{
						OFFSET 0.021936 -0.023438 0.169146
						CHANNELS 3 Xrotation Yrotation Zrotation
						End Site
						{
							OFFSET 0.000000 0.050000 0.000000
						}
					}
				}
				JOINT Clavicle.L
				{
					OFFSET 0.043158 0.008321 0.083243
					CHANNELS 3 Xrotation Yrotation Zrotation
					JOINT UpperArm.L
					{
						OFFSET 0.105425 0.014182 0.060116
						CHANNELS 3 Xrotation Yrotation Zrotation
						JOINT ForeArm.L
						{
							OFFSET 0.261488 0.034950 -0.074544
							CHANNELS 3 Xrotation Yrotation Zrotation
							JOINT Hand.L
							{
								OFFSET 0.259160 0.006451 0.020691
								CHANNELS 3 Xrotation Yrotation Zrotation
								JOINT Thumb1.L
								{
									OFFSET 0.154583 0.002977 0.009547
									CHANNELS 3 Xrotation Yrotation Zrotation
									JOINT Thumb2.L
									{
										OFFSET 0.029896 0.000744 0.002387
										CHANNELS 3 Xrotation Yrotation Zrotation
										End Site
										{
											OFFSET 0.024913 0.000620 0.001989
										}
									}
								}
								JOINT Index1.L
								{
									OFFSET 0.137583 0.002977 0.009547
									CHANNELS 3 Xrotation Yrotation Zrotation
									JOINT Index2.L
									{
										OFFSET 0.029896 0.000744 0.002387
										CHANNELS 3 Xrotation Yrotation Zrotation
										JOINT Index3.L
										{
											OFFSET 0.021923 0.000546 0.001750
											CHANNELS 3 Xrotation Yrotation Zrotation
											End Site
											{
												OFFSET 0.017937 0.000447 0.001432
											}
										}
									}
								}
								JOINT Middle1.L
								{
									OFFSET 0.119583 0.002977 0.009547
									CHANNELS 3 Xrotation Yrotation Zrotation
									JOINT Middle2.L
									{
										OFFSET 0.030892 0.000769 0.002466
										CHANNELS 3 Xrotation Yrotation Zrotation
										JOINT Middle3.L
										{
											OFFSET 0.021923 0.000546 0.001750
											CHANNELS 3 Xrotation Yrotation Zrotation
											End Site
											{
												OFFSET 0.017937 0.000447 0.001432
											}
										}
									}
								}
								JOINT Ring1.L
								{
									OFFSET 0.101583 0.002977 0.009547
									CHANNELS 3 Xrotation Yrotation Zrotation
									JOINT Ring2.L
									{
										OFFSET 0.028899 0.000719 0.002307
										CHANNELS 3 Xrotation Yrotation Zrotation
										JOINT Ring3.L
										{
											OFFSET 0.019930 0.000496 0.001591
											CHANNELS 3 Xrotation Yrotation Zrotation
											End Site
											{
												OFFSET 0.016941 0.000422 0.001353
											}
										}
									}
								}
								JOINT Pinky1.L
								{
									OFFSET 0.085583 0.002977 0.009547
									CHANNELS 3 Xrotation Yrotation Zrotation
									JOINT Pinky2.L
									{
										OFFSET 0.023917 0.000595 0.001909
										CHANNELS 3 Xrotation Yrotation Zrotation
										JOINT Pinky3.L
										{
											OFFSET 0.016941 0.000422 0.001353
											CHANNELS 3 Xrotation Yrotation Zrotation
											End Site
											{
												OFFSET 0.013951 0.000347 0.001114
											}
										}
									}
								}
							}
						}
					}
				}
				JOINT Clavicle.R
				{
					OFFSET -0.041093 0.014402 0.082651
					CHANNELS 3 Xrotation Yrotation Zrotation
					JOINT UpperArm.R
					{
						OFFSET -0.091010 0.009223 0.056026
						CHANNELS 3 Xrotation Yrotation Zrotation
						JOINT ForeArm.R
						{
							OFFSET -0.277239 0.022468 -0.042453
							CHANNELS 3 Xrotation Yrotation Zrotation
							JOINT Hand.R
							{
								OFFSET -0.256016 0.018792 -0.003571
								CHANNELS 3 Xrotation Yrotation Zrotation
								JOINT Thumb1.R
								{
									OFFSET -0.154666 0.008784 -0.001669
									CHANNELS 3 Xrotation Yrotation Zrotation
									JOINT Thumb2.R
									{
										OFFSET -0.029917 0.002196 -0.000417
										CHANNELS 3 Xrotation Yrotation Zrotation
										End Site
										{
											OFFSET -0.024931 0.001830 -0.000348
										}
									}
								}
								JOINT Index1.R
								{
									OFFSET -0.137666 0.008784 -0.001669
									CHANNELS 3 Xrotation Yrotation Zrotation
									JOINT Index2.R
									{
										OFFSET -0.029917 0.002196 -0.000417
										CHANNELS 3 Xrotation Yrotation Zrotation
										JOINT Index3.R
										{
											OFFSET -0.021939 0.001610 -0.000306
											CHANNELS 3 Xrotation Yrotation Zrotation
											End Site
											{
												OFFSET -0.017950 0.001318 -0.000250
											}
										}
									}
								}
								JOINT Middle1.R
								{
									OFFSET -0.119666 0.008784 -0.001669
									CHANNELS 3 Xrotation Yrotation Zrotation
									JOINT Middle2.R
									{
										OFFSET -0.030914 0.002269 -0.000431
										CHANNELS 3 Xrotation Yrotation Zrotation
										JOINT Middle3.R
										{
											OFFSET -0.021939 0.001610 -0.000306
											CHANNELS 3 Xrotation Yrotation Zrotation
											End Site
											{
												OFFSET -0.017950 0.001318 -0.000250
											}
										}
									}
								}
								JOINT Ring1.R
								{
									OFFSET -0.101666 0.008784 -0.001669
									CHANNELS 3 Xrotation Yrotation Zrotation
									JOINT Ring2.R
									{
										OFFSET -0.028919 0.002123 -0.000403
										CHANNELS 3 Xrotation Yrotation Zrotation
										JOINT Ring3.R
										{
											OFFSET -0.019944 0.001464 -0.000278
											CHANNELS 3 Xrotation Yrotation Zrotation
											End Site
											{
												OFFSET -0.016953 0.001244 -0.000236
											}
										}
									}
								}
								JOINT Pinky1.R
								{
									OFFSET -0.085666 0.008784 -0.001669
									CHANNELS 3 Xrotation Yrotation Zrotation
									JOINT Pinky2.R
									{
										OFFSET -0.023933 0.001757 -0.000334
										CHANNELS 3 Xrotation Yrotation Zrotation
										JOINT Pinky3.R
										{
											OFFSET -0.016953 0.001244 -0.000236
											CHANNELS 3 Xrotation Yrotation Zrotation
											End Site
											{
												OFFSET -0.013961 0.001025 -0.000195
											}
										}
									}
								}
							}
						}
					}
				}
			}
		}
	}
}
MOTION
Frames: 5
Frame Time: 0.04166667
-0.006948 -0.057270 1.073608 -8.794221 1.628291 1.610674 4.813015 -0.778794 3.122789 7.958808 1.784188 -2.612543 -7.815657 1.974251 10.405916 2.322396 -5.044610 0.744423 1.526839 -0.140493 -4.435430 12.375080 -0.497505 -5.339134 -4.810514 -0.836027 -9.842973 0.864568 -3.614318 -1.696312 7.996624 -0.321499 2.323093 5.235506 -2.417188 -2.566561 -2.781153 1.356542 0.709707 6.662948 1.662823 3.395639 9.471080 -0.808278 6.121119 4.070901 19.498558 1.212448 18.562883 47.305665 -20.019461 22.987196 -5.952647 -31.606253 3.849311 2.445630 -8.414879 0.000000 0.000000 0.000000 0.000000 0.000000 0.000000 0.000000 0.000000 0.000000 0.000000 0.000000 0.000000 0.000000 0.000000 0.000000 0.000000 0.000000 0.000000 0.000000 0.000000 0.000000 0.000000 0.000000 0.000000 0.000000 0.000000 0.000000 0.000000 0.000000 0.000000 0.000000 0.000000 0.000000 0.000000 0.000000 0.000000 0.000000 0.000000 0.000000 0.000000 0.000000 0.000000 1.021839 -11.997603 2.372397 32.389532 -53.932486 26.159814 18.442910 7.742963 32.545111 3.205993 -7.710776 2.624213 0.000000 0.000000 0.000000 0.000000 0.000000 0.000000 0.000000 0.000000 0.000000 0.000000 0.000000 0.000000 0.000000 0.000000 0.000000 0.000000 0.000000 0.000000 0.000000 0.000000 0.000000 0.000000 0.000000 0.000000 0.000000 0.000000 0.000000 0.000000 0.000000 0.000000 0.000000 0.000000 0.000000 0.000000 0.000000 0.000000 0.000000 0.000000 0.000000 0.000000 0.000000 0.000000
-0.007603 -0.058956 1.073504 -8.878378 1.628319 1.476707 4.710778 -0.659781 3.016182 8.206248 1.719059 -2.576523 -7.910755 1.859272 10.576223 2.339230 -5.080256 0.750279 1.269892 -0.099026 -4.371489 12.846657 -0.434642 -5.496573 -4.845421 -0.857961 -9.713644 0.867204 -3.607646 -1.677202 8.036166 -0.304468 2.381999 5.208695 -2.415957 -2.572799 -2.729877 1.393190 0.762792 6.765671 1.731500 3.448113 9.687511 -0.722532 6.138169 4.098511 19.448731 0.999201 18.835993 46.884099 -20.021037 23.780726 -6.134162 -32.336979 4.102383 2.380406 -8.534151 0.000000 0.000000 0.000000 0.000000 0.000000 0.000000 0.000000 0.000000 0.000000 0.000000 0.000000 0.000000 0.000000 0.000000 0.000000 0.000000 0.000000 0.000000 0.000000 0.000000 0.000000 0.000000 0.000000 0.000000 0.000000 0.000000 0.000000 0.000000 0.000000 0.000000 0.000000 0.000000 0.000000 0.000000 0.000000 0.000000 0.000000 0.000000 0.000000 0.000000 0.000000 0.000000 1.002616 -12.035366 2.494626 32.440565 -53.605322 26.046120 18.916967 7.893305 32.983869 3.377433 -7.721130 2.727677 0.000000 0.000000 0.000000 0.000000 0.000000 0.000000 0.000000 0.000000 0.000000 0.000000 0.000000 0.000000 0.000000 0.000000 0.000000 0.000000 0.000000 0.000000 0.000000 0.000000 0.000000 0.000000 0.000000 0.000000 0.000000 0.000000 0.000000 0.000000 0.000000 0.000000 0.000000 0.000000 0.000000 0.000000 0.000000 0.000000 0.000000 0.000000 0.000000 0.000000 0.000000 0.000000
-0.006601 -0.059115 1.073256 -8.885601 1.580146 1.379447 4.680036 -0.628744 2.962121 8.289552 1.725242 -2.481973 -7.956911 1.769012 10.589875 2.366862 -5.072285 0.759621 1.193014 -0.092106 -4.351215 12.970511 -0.410755 -5.596411 -4.968021 -0.809908 -9.654959 0.891384 -3.619121 -1.680244 7.927123 -0.308901 2.433371 5.373992 -2.457822 -2.558381 -2.782811 1.407456 0.796680 6.853471 1.802302 3.381581 9.837900 -0.753197 6.132274 4.127085 19.421321 0.783163 19.216292 46.475441 -20.157761 24.349641 -6.274181 -32.954001 4.270137 2.238858 -8.822477 0.000000 0.000000 0.000000 0.000000 0.000000 0.000000 0.000000 0.000000 0.000000 0.000000 0.000000 0.000000 0.000000 0.000000 0.000000 0.000000 0.000000 0.000000 0.000000 0.000000 0.000000 0.000000 0.000000 0.000000 0.000000 0.000000 0.000000 0.000000 0.000000 0.000000 0.000000 0.000000 0.000000 0.000000 0.000000 0.000000 0.000000 0.000000 0.000000 0.000000 0.000000 0.000000 1.058077 -12.138009 2.671355 32.529887 -53.244208 25.922150 19.270339 7.876092 33.526530 3.553152 -7.670482 2.951033 0.000000 0.000000 0.000000 0.000000 0.000000 0.000000 0.000000 0.000000 0.000000 0.000000 0.000000 0.000000 0.000000 0.000000 0.000000 0.000000 0.000000 0.000000 0.000000 0.000000 0.000000 0.000000 0.000000 0.000000 0.000000 0.000000 0.000000 0.000000 0.000000 0.000000 0.000000 0.000000 0.000000 0.000000 0.000000 0.000000 0.000000 0.000000 0.000000 0.000000 0.000000 0.000000
-0.005220 -0.060151 1.072964 -8.945372 1.500332 1.320302 4.571056 -0.600690 2.894206 8.560036 1.754957 -2.404605 -8.058043 1.693404 10.596553 2.370185 -5.073885 0.766323 1.080159 -0.069577 -4.283027 13.214837 -0.387720 -5.657284 -5.128298 -0.731572 -9.661757 0.899366 -3.613792 -1.677429 7.878856 -0.321526 2.464978 5.524121 -2.465384 -2.536465 -2.844714 1.429354 0.828154 6.945748 1.879338 3.325768 9.983777 -0.810403 6.201233 4.112190 19.425975 0.512950 19.554235 46.002219 -20.221419 24.850573 -6.416972 -34.069574 4.303208 2.015214 -9.127460 0.000000 0.000000 0.000000 0.000000 0.000000 0.000000 0.000000 0.000000 0.000000 0.000000 0.000000 0.000000 0.000000 0.000000 0.000000 0.000000 0.000000 0.000000 0.000000 0.000000 0.000000 0.000000 0.000000 0.000000 0.000000 0.000000 0.000000 0.000000 0.000000 0.000000 0.000000 0.000000 0.000000 0.000000 0.000000 0.000000 0.000000 0.000000 0.000000 0.000000 0.000000 0.000000 1.097646 -12.198863 2.862516 32.654153 -52.853360 25.754487 19.708439 7.853836 34.409018 3.614589 -7.680509 3.153052 0.000000 0.000000 0.000000 0.000000 0.000000 0.000000 0.000000 0.000000 0.000000 0.000000 0.000000 0.000000 0.000000 0.000000 0.000000 0.000000 0.000000 0.000000 0.000000 0.000000 0.000000 0.000000 0.000000 0.000000 0.000000 0.000000 0.000000 0.000000 0.000000 0.000000 0.000000 0.000000 0.000000 0.000000 0.000000 0.000000 0.000000 0.000000 0.000000 0.000000 0.000000 0.000000
-0.002861 -0.061717 1.072604 -9.039177 1.344448 1.281891 4.357706 -0.532949 2.800740 9.065503 1.781304 -2.346658 -8.247753 1.689507 10.620375 2.318778 -5.115656 0.784462 0.878431 -0.011487 -4.185543 13.666617 -0.339593 -5.698105 -5.382910 -0.633559 -9.716939 0.878782 -3.669398 -1.685512 7.895189 -0.347344 2.472453 5.588944 -2.431770 -2.506000 -2.864994 1.458238 0.880450 6.967877 1.922521 3.360323 10.075971 -0.869075 6.259464 4.105395 19.362061 0.199066 19.924693 45.407426 -20.263206 25.639139 -6.663980 -35.679983 4.401811 1.673818 -9.480300 0.000000 0.000000 0.000000 0.000000 0.000000 0.000000 0.000000 0.000000 0.000000 0.000000 0.000000 0.000000 0.000000 0.000000 0.000000 0.000000 0.000000 0.000000 0.000000 0.000000 0.000000 0.000000 0.000000 0.000000 0.000000 0.000000 0.000000 0.000000 0.000000 0.000000 0.000000 0.000000 0.000000 0.000000 0.000000 0.000000 0.000000 0.000000 0.000000 0.000000 0.000000 0.000000 1.122613 -12.130584 3.073500 32.869910 -52.486383 25.598840 20.398253 7.891841 35.723154 3.662979 -7.678698 3.308466 0.000000 0.000000 0.000000 0.000000 0.000000 0.000000 0.000000 0.000000 0.000000 0.000000 0.000000 0.000000 0.000000 0.000000 0.000000 0.000000 0.000000 0.000000 0.000000 0.000000 0.000000 0.000000 0.000000 0.000000 0.000000 0.000000 0.000000 0.000000 0.000000 0.000000 0.000000 0.000000 0.000000 0.000000 0.000000 0.000000 0.000000 0.000000 0.000000 0.000000 0.000000 0.000000
